{
 "cells": [
  {
   "cell_type": "code",
   "execution_count": 1,
   "metadata": {},
   "outputs": [],
   "source": [
    "from src import *\n",
    "import ffmpegio\n",
    "from data.scanner.CAVA_V1 import datasets_cava_v1\n",
    "gpu = 0"
   ]
  },
  {
   "cell_type": "code",
   "execution_count": 2,
   "metadata": {},
   "outputs": [],
   "source": [
    "def load_experiment(results_dir, model):\n",
    "    param = torch.load(os.path.join(results_dir, \"param.pth\"))\n",
    "    spec = importlib.util.spec_from_file_location(\"module.name\", os.path.abspath(os.path.join(results_dir, os.path.basename(param.experiment.script_file_path))))\n",
    "    experiment_script = importlib.util.module_from_spec(spec)\n",
    "    sys.modules[\"module.name\"] = experiment_script\n",
    "    spec.loader.exec_module(experiment_script)\n",
    "    exp = experiment_script.load_experiment(results_dir, model, gpu=gpu)\n",
    "    return exp"
   ]
  },
  {
   "cell_type": "code",
   "execution_count": 4,
   "metadata": {},
   "outputs": [],
   "source": [
    "dataset_nr = 10\n",
    "results_dir = \"results/cava_v1/10/FMLP/validation/900/s_t 1.0 spatial_coordinate_scale 30.0/\"\n",
    "model = \"training/ser_highscore.pth\"\n",
    "exp = load_experiment(results_dir, model)"
   ]
  },
  {
   "cell_type": "code",
   "execution_count": 6,
   "metadata": {},
   "outputs": [
    {
     "name": "stderr",
     "output_type": "stream",
     "text": [
      "Input #0, rawvideo, from 'pipe:':\n",
      "  Duration: N/A, start: 0.000000, bitrate: 12928 kb/s\n",
      "    Stream #0:0: Video: rawvideo (RGB[24] / 0x18424752), rgb24, 134x134, 12928 kb/s, 30 tbr, 30 tbn, 30 tbc\n",
      "Stream mapping:\n",
      "  Stream #0:0 -> #0:0 (rawvideo (native) -> h264 (libx264))\n",
      "[swscaler @ 0x5560b42537e0] Warning: data is not aligned! This can lead to a speed loss\n",
      "[libx264 @ 0x5560b4231900] using cpu capabilities: MMX2 SSE2Fast SSSE3 SSE4.2 AVX FMA3 BMI2 AVX2 AVX512\n",
      "[libx264 @ 0x5560b4231900] profile High 4:4:4 Predictive, level 1.1, 4:4:4 8-bit\n",
      "[libx264 @ 0x5560b4231900] 264 - core 152 r2854 e9a5903 - H.264/MPEG-4 AVC codec - Copyleft 2003-2017 - http://www.videolan.org/x264.html - options: cabac=1 ref=3 deblock=1:0:0 analyse=0x1:0x111 me=hex subme=7 psy=1 psy_rd=1.00:0.00 mixed_ref=1 me_range=16 chroma_me=1 trellis=1 8x8dct=0 cqm=0 deadzone=21,11 fast_pskip=1 chroma_qp_offset=4 threads=4 lookahead_threads=1 sliced_threads=0 nr=0 decimate=1 interlaced=0 bluray_compat=0 constrained_intra=0 bframes=3 b_pyramid=2 b_adapt=1 b_bias=0 direct=1 weightb=1 open_gop=0 weightp=2 keyint=250 keyint_min=25 scenecut=40 intra_refresh=0 rc_lookahead=40 rc=crf mbtree=1 crf=23.0 qcomp=0.60 qpmin=0 qpmax=69 qpstep=4 ip_ratio=1.40 aq=1:1.00\n",
      "Output #0, mp4, to 'supplements/lowres_highsnr/FMLP/900/30fps_cfr.mp4':\n",
      "  Metadata:\n",
      "    encoder         : Lavf57.83.100\n",
      "    Stream #0:0: Video: h264 (libx264) (avc1 / 0x31637661), yuv444p, 134x134, q=-1--1, 30 fps, 15360 tbn, 30 tbc\n",
      "    Metadata:\n",
      "      encoder         : Lavc57.107.100 libx264\n",
      "    Side data:\n",
      "      cpb: bitrate max/min/avg: 0/0/0 buffer size: 0 vbv_delay: -1\n",
      "frame=  900 fps=0.0 q=-1.0 Lsize=     256kB time=00:00:29.90 bitrate=  70.2kbits/s speed=40.1x    \n",
      "video:251kB audio:0kB subtitle:0kB other streams:0kB global headers:0kB muxing overhead: 1.927089%\n",
      "[libx264 @ 0x5560b4231900] frame I:4     Avg QP:19.45  size:  3584\n",
      "[libx264 @ 0x5560b4231900] frame P:864   Avg QP:22.85  size:   279\n",
      "[libx264 @ 0x5560b4231900] frame B:32    Avg QP:27.04  size:    52\n",
      "[libx264 @ 0x5560b4231900] consecutive B-frames: 94.0%  2.9%  2.7%  0.4%\n",
      "[libx264 @ 0x5560b4231900] mb I  I16..4:  6.2%  0.0% 93.8%\n",
      "[libx264 @ 0x5560b4231900] mb P  I16..4:  0.0%  0.0%  0.0%  P16..4: 19.6%  7.6%  7.3%  0.0%  0.0%    skip:65.5%\n",
      "[libx264 @ 0x5560b4231900] mb B  I16..4:  0.0%  0.0%  0.0%  B16..8: 11.0%  0.3%  0.2%  direct: 1.7%  skip:86.8%  L0: 5.2% L1:89.3% BI: 5.5%\n",
      "[libx264 @ 0x5560b4231900] coded y,u,v intra: 84.7% 0.0% 0.0% inter: 14.1% 0.0% 0.0%\n",
      "[libx264 @ 0x5560b4231900] i16 v,h,dc,p: 15% 44% 37%  4%\n",
      "[libx264 @ 0x5560b4231900] i4 v,h,dc,ddl,ddr,vr,hd,vl,hu: 29% 11% 12%  7%  8% 12%  5%  9%  7%\n",
      "[libx264 @ 0x5560b4231900] Weighted P-Frames: Y:0.0% UV:0.0%\n",
      "[libx264 @ 0x5560b4231900] ref P L0: 83.5% 15.6%  0.8%  0.1%\n",
      "[libx264 @ 0x5560b4231900] ref B L0: 95.3%  4.7%\n",
      "[libx264 @ 0x5560b4231900] ref B L1: 99.7%  0.3%\n",
      "[libx264 @ 0x5560b4231900] kb/s:68.45\n",
      "Reading MP4 stream...\n",
      "Done reading\n",
      "Saving MP4 stream...\n",
      "Writing chunk 1/1...\n",
      "Operation completed with no problem\n",
      "ffmpeg version 3.4.11-0ubuntu0.1 Copyright (c) 2000-2022 the FFmpeg developers\n",
      "  built with gcc 7 (Ubuntu 7.5.0-3ubuntu1~18.04)\n",
      "  configuration: --prefix=/usr --extra-version=0ubuntu0.1 --toolchain=hardened --libdir=/usr/lib/x86_64-linux-gnu --incdir=/usr/include/x86_64-linux-gnu --enable-gpl --disable-stripping --enable-avresample --enable-avisynth --enable-gnutls --enable-ladspa --enable-libass --enable-libbluray --enable-libbs2b --enable-libcaca --enable-libcdio --enable-libflite --enable-libfontconfig --enable-libfreetype --enable-libfribidi --enable-libgme --enable-libgsm --enable-libmp3lame --enable-libmysofa --enable-libopenjpeg --enable-libopenmpt --enable-libopus --enable-libpulse --enable-librubberband --enable-librsvg --enable-libshine --enable-libsnappy --enable-libsoxr --enable-libspeex --enable-libssh --enable-libtheora --enable-libtwolame --enable-libvorbis --enable-libvpx --enable-libwavpack --enable-libwebp --enable-libx265 --enable-libxml2 --enable-libxvid --enable-libzmq --enable-libzvbi --enable-omx --enable-openal --enable-opengl --enable-sdl2 --enable-libdc1394 --enable-libdrm --enable-libiec61883 --enable-chromaprint --enable-frei0r --enable-libopencv --enable-libx264 --enable-shared\n",
      "  libavutil      55. 78.100 / 55. 78.100\n",
      "  libavcodec     57.107.100 / 57.107.100\n",
      "  libavformat    57. 83.100 / 57. 83.100\n",
      "  libavdevice    57. 10.100 / 57. 10.100\n",
      "  libavfilter     6.107.100 /  6.107.100\n",
      "  libavresample   3.  7.  0 /  3.  7.  0\n",
      "  libswscale      4.  8.100 /  4.  8.100\n",
      "  libswresample   2.  9.100 /  2.  9.100\n",
      "  libpostproc    54.  7.100 / 54.  7.100\n",
      "Input #0, mov,mp4,m4a,3gp,3g2,mj2, from 'supplements/lowres_highsnr/FMLP/900/timecoded_vfr.mp4':\n",
      "  Metadata:\n",
      "    major_brand     : isom\n",
      "    minor_version   : 512\n",
      "    compatible_brands: isomiso2avc1mp41\n",
      "    encoder         : Lavf57.83.100\n",
      "  Duration: 00:00:30.00, start: 0.000000, bitrate: 71 kb/s\n",
      "    Stream #0:0(und): Video: h264 (High 4:4:4 Predictive) (avc1 / 0x31637661), yuv444p, 134x134, 129 kb/s, 56.59 fps, 30 tbr, 1k tbn, 60 tbc (default)\n",
      "    Metadata:\n",
      "      creation_time   : 2023-04-19T09:14:22.000000Z\n",
      "      handler_name    : VideoHandler\n",
      "Stream mapping:\n",
      "  Stream #0:0 -> #0:0 (h264 (native) -> h264 (libx264))\n",
      "Press [q] to stop, [?] for help\n",
      "[libx264 @ 0x5615b3d0dfa0] using cpu capabilities: MMX2 SSE2Fast SSSE3 SSE4.2 AVX FMA3 BMI2 AVX2 AVX512\n",
      "[libx264 @ 0x5615b3d0dfa0] profile High 4:4:4 Predictive, level 1.1, 4:4:4 8-bit\n",
      "[libx264 @ 0x5615b3d0dfa0] 264 - core 152 r2854 e9a5903 - H.264/MPEG-4 AVC codec - Copyleft 2003-2017 - http://www.videolan.org/x264.html - options: cabac=1 ref=3 deblock=1:0:0 analyse=0x1:0x111 me=hex subme=7 psy=1 psy_rd=1.00:0.00 mixed_ref=1 me_range=16 chroma_me=1 trellis=1 8x8dct=0 cqm=0 deadzone=21,11 fast_pskip=1 chroma_qp_offset=4 threads=4 lookahead_threads=1 sliced_threads=0 nr=0 decimate=1 interlaced=0 bluray_compat=0 constrained_intra=0 bframes=3 b_pyramid=2 b_adapt=1 b_bias=0 direct=1 weightb=1 open_gop=0 weightp=2 keyint=250 keyint_min=25 scenecut=40 intra_refresh=0 rc_lookahead=40 rc=crf mbtree=1 crf=23.0 qcomp=0.60 qpmin=0 qpmax=69 qpstep=4 ip_ratio=1.40 aq=1:1.00\n",
      "Output #0, mp4, to 'supplements/lowres_highsnr/FMLP/900/timecoded_cfr.mp4':\n",
      "  Metadata:\n",
      "    major_brand     : isom\n",
      "    minor_version   : 512\n",
      "    compatible_brands: isomiso2avc1mp41\n",
      "    encoder         : Lavf57.83.100\n",
      "    Stream #0:0(und): Video: h264 (libx264) (avc1 / 0x31637661), yuv444p, 134x134, q=-1--1, 30 fps, 15360 tbn, 30 tbc (default)\n",
      "    Metadata:\n",
      "      creation_time   : 2023-04-19T09:14:22.000000Z\n",
      "      handler_name    : VideoHandler\n",
      "      encoder         : Lavc57.107.100 libx264\n",
      "    Side data:\n",
      "      cpb: bitrate max/min/avg: 0/0/0 buffer size: 0 vbv_delay: -1\n",
      "Past duration 0.979988 too large\n",
      "frame=  478 fps=0.0 q=-1.0 Lsize=     162kB time=00:00:15.83 bitrate=  83.7kbits/s dup=0 drop=421 speed=38.1x    \n",
      "video:159kB audio:0kB subtitle:0kB other streams:0kB global headers:0kB muxing overhead: 1.904856%\n",
      "[libx264 @ 0x5615b3d0dfa0] frame I:2     Avg QP:20.30  size:  3191\n",
      "[libx264 @ 0x5615b3d0dfa0] frame P:460   Avg QP:23.36  size:   335\n",
      "[libx264 @ 0x5615b3d0dfa0] frame B:16    Avg QP:27.80  size:    72\n",
      "[libx264 @ 0x5615b3d0dfa0] consecutive B-frames: 93.5%  5.9%  0.6%  0.0%\n",
      "[libx264 @ 0x5615b3d0dfa0] mb I  I16..4:  6.2%  0.0% 93.8%\n",
      "[libx264 @ 0x5615b3d0dfa0] mb P  I16..4:  0.0%  0.0%  0.2%  P16..4: 19.5% 11.1%  8.1%  0.0%  0.0%    skip:61.1%\n",
      "[libx264 @ 0x5615b3d0dfa0] mb B  I16..4:  0.0%  0.0%  0.0%  B16..8: 13.1%  1.6%  0.7%  direct: 1.9%  skip:82.6%  L0:19.7% L1:67.5% BI:12.7%\n",
      "[libx264 @ 0x5615b3d0dfa0] coded y,u,v intra: 78.6% 0.0% 0.0% inter: 16.5% 0.0% 0.0%\n",
      "[libx264 @ 0x5615b3d0dfa0] i16 v,h,dc,p: 22% 26% 52%  0%\n",
      "[libx264 @ 0x5615b3d0dfa0] i4 v,h,dc,ddl,ddr,vr,hd,vl,hu: 29% 12% 13%  6%  8% 11%  6%  9%  6%\n",
      "[libx264 @ 0x5615b3d0dfa0] Weighted P-Frames: Y:0.0% UV:0.0%\n",
      "[libx264 @ 0x5615b3d0dfa0] ref P L0: 77.9% 21.1%  0.8%  0.2%\n",
      "[libx264 @ 0x5615b3d0dfa0] ref B L0: 97.4%  2.6%\n",
      "[libx264 @ 0x5615b3d0dfa0] kb/s:81.26\n"
     ]
    }
   ],
   "source": [
    "def render_mp4(imgs, export_dir, frame_times):\n",
    "    create_dir(export_dir)\n",
    "\n",
    "    imgs_rgb = imgs.copy()\n",
    "    img_max_val = datasets_cava_v1[dataset_nr][\"brightness\"]\n",
    "\n",
    "    imgs_rgb /= img_max_val\n",
    "    imgs_rgb[imgs_rgb > 1.] = 1. # clip maximum\n",
    "    imgs_rgb[imgs_rgb < 0] = 0. # clip minimum (should not be necessary for absolute valued images)\n",
    "    imgs_rgb *= 255\n",
    "    imgs_rgb = np.uint8(imgs_rgb)\n",
    "\n",
    "    imgs_rgb = np.expand_dims(imgs_rgb, axis=3)\n",
    "    imgs_rgb = imgs_rgb.repeat(3, axis=3)\n",
    "\n",
    "    raw_video_file = os.path.join(export_dir, '30fps_cfr.mp4')\n",
    "\n",
    "    ffmpegio.video.write(raw_video_file, 30, imgs_rgb, overwrite=True)\n",
    "\n",
    "    # write timecode file\n",
    "\n",
    "    timecode = \"\"\"# timecode format v2\n",
    "\n",
    "    \"\"\"\n",
    "    for i, t_k in enumerate(frame_times):\n",
    "        if i >= len(imgs): break\n",
    "        timecode += \"{}\\n\".format(t_k * 1000)\n",
    "\n",
    "    timecodes_file = os.path.join(export_dir, 'timecodes.txt')\n",
    "    with open(timecodes_file, 'w') as f:\n",
    "        f.write(timecode)\n",
    "\n",
    "    timecoded_vfr_file = os.path.join(export_dir, 'timecoded_vfr.mp4')\n",
    "    timecoded_cfr_file = os.path.join(export_dir, 'timecoded_cfr.mp4')\n",
    "\n",
    "\n",
    "    os.system(\"mp4fpsmod -o \\\"{}\\\" -t \\\"{}\\\" \\\"{}\\\"\".format(timecoded_vfr_file, timecodes_file, raw_video_file))\n",
    "    os.system(\"ffmpeg -y -i \\\"{}\\\" \\\"{}\\\"\".format(timecoded_vfr_file, timecoded_cfr_file))\n",
    "\n",
    "\n",
    "if dataset_nr == 10 or dataset_nr == 15:\n",
    "    imgs = np.stack([np.rot90(exp.model.evaluate_npy(sample)[26:-26,65:-65]) for sample in exp.dataset])\n",
    "else:\n",
    "    imgs = np.stack([np.rot90(exp.model.evaluate_npy(sample)[47:-47,120:-120]) for sample in exp.dataset])\n",
    "\n",
    "export_dir = \"supplements/lowres_highsnr/FMLP/900/\"\n",
    "render_mp4(imgs, export_dir, exp.param.data.frame_times)\n"
   ]
  },
  {
   "cell_type": "code",
   "execution_count": 7,
   "metadata": {},
   "outputs": [],
   "source": [
    "all_images = []\n",
    "\n",
    "images = [exp.model.evaluate_npy(exp.dataset[k]) for k in [105, 115, 125, 135]]\n",
    "if dataset_nr == 10 or dataset_nr == 15: # low-res\n",
    "    images = [np.rot90(img[26:-26,65:-65]) for img in images]\n",
    "else: # high-res\n",
    "    images = [np.rot90(img[47:-47,120:-120]) for img in images]\n",
    "all_images.append(images)\n",
    "\n",
    "import glob, tikzplotlib\n",
    "\n",
    "fig, axes = plt.subplots(nrows=4, ncols=1, figsize=(9, 9))\n",
    "brightness = datasets_cava_v1[dataset_nr][\"brightness\"]\n",
    "for i, img in enumerate(images):\n",
    "    axes[i].imshow(img, cmap=\"gray\", vmax=brightness, vmin=0)\n",
    "\n",
    "create_dir(os.path.join(results_dir, \"figures\"))\n",
    "tex_file_name = os.path.join(results_dir, \"figures/fmlp.tex\")\n",
    "for file in glob.glob(os.path.splitext(tex_file_name)[0] + \"-*\"):\n",
    "    os.remove(file)\n",
    "tikzplotlib.save(tex_file_name, standalone=False)"
   ]
  }
 ],
 "metadata": {
  "kernelspec": {
   "display_name": "base",
   "language": "python",
   "name": "python3"
  },
  "language_info": {
   "codemirror_mode": {
    "name": "ipython",
    "version": 3
   },
   "file_extension": ".py",
   "mimetype": "text/x-python",
   "name": "python",
   "nbconvert_exporter": "python",
   "pygments_lexer": "ipython3",
   "version": "3.7.7"
  },
  "orig_nbformat": 4,
  "vscode": {
   "interpreter": {
    "hash": "d4d1e4263499bec80672ea0156c357c1ee493ec2b1c70f0acce89fc37c4a6abe"
   }
  }
 },
 "nbformat": 4,
 "nbformat_minor": 2
}
